<svg xmlns="http://www.w3.org/2000/svg" width="579" height="200" viewBox="0 0 579 200" fill="none">
<g clip-path="url(#clip0_2_6)">
<path d="M276.35 129.7C268.323 129.7 262.093 127.343 257.66 122.63C253.273 117.917 251.08 111.78 251.08 104.22V95.82C251.08 88.3066 253.273 82.2166 257.66 77.55C262.093 72.8366 268.347 70.48 276.42 70.48C283.7 70.48 289.44 72.4633 293.64 76.43C297.887 80.3966 300.22 85.53 300.64 91.83L300.78 95.12H289.44L289.37 90.5C289.137 87.5133 287.9 85.0166 285.66 83.01C283.42 81.0033 280.34 80 276.42 80C271.753 80 268.23 81.3766 265.85 84.13C263.47 86.8366 262.28 90.3133 262.28 94.56V105.62C262.28 109.913 263.447 113.413 265.78 116.12C268.16 118.827 271.707 120.18 276.42 120.18C280.387 120.18 283.467 119.177 285.66 117.17C287.9 115.117 289.137 112.597 289.37 109.61L289.44 104.99H300.78L300.64 108.28C300.22 114.627 297.887 119.783 293.64 123.75C289.44 127.717 283.677 129.7 276.35 129.7Z" fill="#F8FDFF" fill-opacity="0.5"/>
<path d="M330.809 129.7C322.969 129.7 316.833 127.343 312.399 122.63C308.013 117.87 305.819 111.733 305.819 104.22V95.82C305.819 88.3533 308.013 82.2633 312.399 77.55C316.833 72.8366 322.969 70.48 330.809 70.48C338.603 70.48 344.693 72.8366 349.079 77.55C353.513 82.2166 355.729 88.3066 355.729 95.82V104.22C355.729 111.733 353.513 117.87 349.079 122.63C344.693 127.343 338.603 129.7 330.809 129.7ZM316.949 105.62C316.949 109.867 318.093 113.367 320.379 116.12C322.713 118.827 326.189 120.18 330.809 120.18C335.429 120.18 338.883 118.827 341.169 116.12C343.456 113.367 344.599 109.867 344.599 105.62V94.49C344.599 90.3366 343.433 86.8833 341.099 84.13C338.813 81.3766 335.383 80 330.809 80C326.189 80 322.713 81.3766 320.379 84.13C318.093 86.8366 316.949 90.29 316.949 94.49V105.62Z" fill="#F8FDFF" fill-opacity="0.5"/>
<path d="M363.134 129V71.18H373.634L397.994 110.1V71.18H408.494V129H397.924L373.634 90.08V129H363.134Z" fill="#F8FDFF" fill-opacity="0.5"/>
<path d="M427.884 129L413.674 71.18H424.874L435.234 116.61V116.75L435.304 116.61L446.364 71.18H460.364L471.424 116.47L471.494 116.75L471.564 116.54L481.784 71.18H492.984L478.844 129H464.144L453.574 84.76L453.364 84.06L453.224 84.76L442.514 129H427.884Z" fill="#F8FDFF" fill-opacity="0.5"/>
<path d="M490.137 129L508.197 71.18H523.107L541.237 129H529.687L526.887 119.41H504.417L501.617 129H490.137ZM507.147 109.89H524.157L516.177 82.52L515.687 81.05L515.127 82.52L507.147 109.89Z" fill="#F8FDFF" fill-opacity="0.5"/>
<path d="M543.99 129V119.2H555.68V80.98H543.99V71.18H578.22V80.98H566.6V119.2H578.22V129H543.99Z" fill="#F8FDFF" fill-opacity="0.5"/>
<rect x="135.603" y="68.6273" width="62.3973" height="62.3973" fill="#F8FDFF" fill-opacity="0.5"/>
<rect x="135.603" y="137.593" width="62.3973" height="62.3973" fill="#F8FDFF" fill-opacity="0.5"/>
<rect x="67.7319" y="137.593" width="62.3973" height="62.3973" fill="#F8FDFF" fill-opacity="0.5"/>
<rect x="67.7319" y="0.756531" width="62.3973" height="62.3973" fill="#F8FDFF" fill-opacity="0.5"/>
<rect x="-0.138794" y="137.593" width="62.3973" height="62.3973" fill="#F8FDFF" fill-opacity="0.5"/>
</g>
<defs>
<clipPath id="clip0_2_6">
<rect width="579" height="200" fill="white"/>
</clipPath>
</defs>
</svg>